<svg xmlns="http://www.w3.org/2000/svg" viewBox="0 0 1200 760"><defs><radialGradient id="b"><stop stop-color="#1b1450"/><stop offset=".55" stop-color="#0a0820"/><stop offset="1" stop-color="#05040e"/></radialGradient><linearGradient id="c" x1="0" y1="0" x2="1" y2="1"><stop stop-color="#b5a5ff"/><stop offset=".45" stop-color="#755cff"/><stop offset="1" stop-color="#2b1e7c"/></linearGradient><filter id="g"><feGaussianBlur stdDeviation="10" result="b"/><feMerge><feMergeNode in="b"/><feMergeNode in="SourceGraphic"/></feMerge></filter></defs><rect width="1200" height="760" fill="url(#b)"/><g fill="none" stroke="#6f58ff" stroke-width="5" opacity=".72" filter="url(#g)"><path d="M270 170C390 170 400 300 505 320"/><path d="M270 300C390 300 415 330 505 335"/><path d="M270 430C390 430 420 365 505 350"/><path d="M270 560C395 560 420 395 505 365"/><path d="M695 320C790 300 810 170 930 170"/><path d="M695 335C785 330 810 300 930 300"/><path d="M695 350C785 365 810 430 930 430"/><path d="M695 365C780 395 810 560 930 560"/></g><g fill="#10102a" stroke="#7079c8" stroke-width="2"><rect x="85" y="125" width="185" height="85" rx="18"/><rect x="85" y="255" width="185" height="85" rx="18"/><rect x="85" y="385" width="185" height="85" rx="18"/><rect x="85" y="515" width="185" height="85" rx="18"/><rect x="930" y="125" width="185" height="85" rx="18"/><rect x="930" y="255" width="185" height="85" rx="18"/><rect x="930" y="385" width="185" height="85" rx="18"/><rect x="930" y="515" width="185" height="85" rx="18"/></g><g font-family="Arial,sans-serif" fill="#f7f5ff" font-size="22" font-weight="700"><text x="130" y="177">People</text><text x="130" y="307">Process</text><text x="130" y="437">Tools</text><text x="130" y="567">Data</text><text x="975" y="177">Automate</text><text x="975" y="307">Applications</text><text x="975" y="437">Integrate</text><text x="975" y="567">Improve</text></g><g filter="url(#g)"><path d="M505 270L650 270L710 315L565 315Z" fill="#9180ff" opacity=".8"/><path d="M505 270L565 315L565 500L505 455Z" fill="#4432a8"/><path d="M565 315L710 315L710 500L565 500Z" fill="url(#c)"/><path d="M505 270L650 270L710 315L565 315M505 270L505 455L565 500M710 315L710 500" fill="none" stroke="#fff" stroke-width="3" opacity=".9"/></g><rect x="585" y="375" width="105" height="48" rx="10" fill="#17103f" stroke="#d9d5ff" stroke-opacity=".45"/><text x="638" y="406" text-anchor="middle" font-family="Arial,sans-serif" font-size="19" font-weight="800" fill="#fff">SNA AI</text><text x="600" y="660" text-anchor="middle" font-family="Arial,sans-serif" font-size="18" letter-spacing="3" fill="#a99cff">CONNECTED BUSINESS WORKFLOWS</text></svg>